<?xml version="1.0" encoding="UTF-8"?>
<svg version="1.1" xmlns="http://www.w3.org/2000/svg" width="300" height="300">
<path d="M0 0 C99 0 198 0 300 0 C300 99 300 198 300 300 C201 300 102 300 0 300 C0 201 0 102 0 0 Z " fill="#FEFEFE" transform="translate(0,0)"/>
<path d="M0 0 C10.24997368 7.8167455 17.54361951 17.15230203 20 30 C21.42776873 44.42168968 20.16107582 57.17709359 11.26953125 69.0625 C9.87289418 71.19398303 9.13524715 72.44479499 9 75 C10.41582148 77.56805287 10.41582148 77.56805287 12.4375 80.0625 C16 84.69863014 16 84.69863014 16 88 C16.66 88 17.32 88 18 88 C19.5078125 89.8984375 19.5078125 89.8984375 21.125 92.375 C21.66382813 93.18710938 22.20265625 93.99921875 22.7578125 94.8359375 C24 97 24 97 24 99 C24.66 99 25.32 99 26 99 C26 99.66 26 100.32 26 101 C14.78 101 3.56 101 -8 101 C-6.78613768 97.35841303 -5.62487008 93.96121608 -4.125 90.46875 C-3.77953125 89.65792969 -3.4340625 88.84710938 -3.078125 88.01171875 C-2.359375 86.33723958 -1.640625 84.66276042 -0.921875 82.98828125 C3.38555265 73.80677894 3.38555265 73.80677894 3 64 C1.53888984 61.20102057 1.53888984 61.20102057 0 59 C0.61277612 61.96175123 1.25372522 63.38058783 3 66 C2.00444827 74.27337817 -4.50753164 81.951211 -9.5 88.3125 C-9.95036621 88.88661621 -10.40073242 89.46073242 -10.86474609 90.05224609 C-11.76669295 91.17536997 -12.68950803 92.2820515 -13.63232422 93.37109375 C-15.02951374 94.96618398 -15.02951374 94.96618398 -16.12158203 96.73828125 C-17.63560894 98.77701856 -18.7368092 99.80662952 -21 101 C-26.30955085 101.73675579 -31.53819809 101.56525818 -36.875 101.375 C-38.34109132 101.34487484 -39.80724197 101.31750348 -41.2734375 101.29296875 C-44.85019911 101.22714448 -48.42472044 101.123767 -52 101 C-52 100.34 -52 99.68 -52 99 C-49.9453125 97.5546875 -49.9453125 97.5546875 -47.125 95.875 C-41.36899453 92.30789802 -36.16915661 88.36506558 -31 84 C-30.18789062 83.33484375 -29.37578125 82.6696875 -28.5390625 81.984375 C-14.09966738 69.68583657 -1.94450449 52.05532333 4 34 C3.54109375 34.77085938 3.0821875 35.54171875 2.609375 36.3359375 C1.99578125 37.33882812 1.3821875 38.34171875 0.75 39.375 C0.14671875 40.37273437 -0.4565625 41.37046875 -1.078125 42.3984375 C-3.02344885 45.03174174 -4.10828398 45.71187196 -7 47 C-7.39268066 46.28980713 -7.78536133 45.57961426 -8.18994141 44.84790039 C-9.99764978 41.5838792 -11.81127892 38.32318366 -13.625 35.0625 C-14.24246094 33.94552734 -14.85992187 32.82855469 -15.49609375 31.67773438 C-18.74029531 25.85524632 -22.05620979 20.21898364 -25.94677734 14.80249023 C-27 13 -27 13 -27 10 C-27.66 10 -28.32 10 -29 10 C-29.26393555 10.70600342 -29.52787109 11.41200684 -29.79980469 12.1394043 C-31.07073408 15.16859058 -32.56762793 17.92080195 -34.203125 20.76953125 C-34.84741455 21.89480225 -35.4917041 23.02007324 -36.15551758 24.17944336 C-36.85354392 25.39053975 -37.55170778 26.60155689 -38.25 27.8125 C-38.96592323 29.05922036 -39.68165999 30.30604781 -40.3972168 31.55297852 C-48.17222681 45.0871103 -55.95285459 58.62564137 -64 72 C-65.33895632 70.33784732 -66.67130142 68.67036393 -68 67 C-68.49628906 66.40574219 -68.99257812 65.81148438 -69.50390625 65.19921875 C-71.28739185 62.57754148 -72.15869715 60.07934315 -73.125 57.0625 C-73.45757812 56.04285156 -73.79015625 55.02320313 -74.1328125 53.97265625 C-77.85144727 41.22544427 -76.39202673 29.17387831 -70.6796875 17.2421875 C-64.3519473 5.9352419 -54.1496369 -3.01559221 -41.6875 -6.9375 C-27.46655585 -10.19899859 -12.31135049 -7.90601102 0 0 Z " fill="#F37222" transform="translate(179,69)"/>
<path d="M0 0 C0.66 0 1.32 0 2 0 C3.48427663 1.87891105 4.83469461 3.7474829 6.16796875 5.73046875 C6.56703934 6.31790359 6.96610992 6.90533844 7.37727356 7.51057434 C8.22063923 8.75821177 9.06019047 10.00843469 9.89624023 11.26098633 C11.17760347 13.17273472 12.48145392 15.06767981 13.78710938 16.96289062 C14.60299769 18.17611941 15.41749708 19.39028362 16.23046875 20.60546875 C16.62308395 21.17025436 17.01569916 21.73503998 17.42021179 22.31694031 C19.1411188 24.94298747 20.0214769 26.5542048 19.8684082 29.73144531 C18.61521489 33.00517944 16.46986184 35.16568029 14 37.5625 C13.20964355 38.33750854 13.20964355 38.33750854 12.40332031 39.12817383 C1.13258071 49.82760799 -12.32884649 57.77939892 -26 65 C-27.53720703 65.82951172 -27.53720703 65.82951172 -29.10546875 66.67578125 C-39.23631312 71.96678904 -49.98478943 75.97901081 -61 79 C-60.67 78.01 -60.34 77.02 -60 76 C-57.67786483 74.93181782 -55.37075542 73.94640935 -53 73 C-46.41988715 70.24831645 -43.81495402 66.28250501 -40.08984375 60.265625 C-39.40019531 59.18796875 -38.71054688 58.1103125 -38 57 C-37.58685547 56.3188916 -37.17371094 55.6377832 -36.74804688 54.93603516 C-32.88652958 49.09154037 -29.32970774 47.43480255 -22.625 45.875 C-20.85027729 45.40587703 -19.07684843 44.93183441 -17.3046875 44.453125 C-16.42006836 44.21916016 -15.53544922 43.98519531 -14.62402344 43.74414062 C-10.57864133 42.59692024 -6.66997724 41.1397201 -2.75 39.625 C-2.06502441 39.36187012 -1.38004883 39.09874023 -0.67431641 38.82763672 C0.88603247 38.2241936 2.44340875 37.61307086 4 37 C-1.60057131 38.07460172 -7.14703235 39.27194598 -12.6875 40.625 C-17.28541653 41.70654301 -21.29484882 42.32826636 -26 42 C-25.37835715 38.89829013 -24.35106601 36.69835183 -22.62329102 34.05761719 C-22.12930313 33.29713074 -21.63531525 32.53664429 -21.12635803 31.75311279 C-20.59094894 30.94255432 -20.05553986 30.13199585 -19.50390625 29.296875 C-18.95516342 28.45908508 -18.40642059 27.62129517 -17.84104919 26.75811768 C-16.68130508 24.99116911 -15.51863967 23.22613497 -14.35327148 21.46289062 C-12.56393983 18.75218124 -10.78832641 16.03283435 -9.01367188 13.3125 C-7.88623396 11.59842048 -6.75800585 9.88486039 -5.62890625 8.171875 C-5.09552139 7.3532196 -4.56213654 6.53456421 -4.0125885 5.69110107 C-3.51544846 4.94322327 -3.01830841 4.19534546 -2.50610352 3.42480469 C-2.06943863 2.76180359 -1.63277374 2.09880249 -1.18287659 1.41571045 C-0.79252731 0.948526 -0.40217804 0.48134155 0 0 Z " fill="#0A7C96" transform="translate(150,90)"/>
<path d="M0 0 C0.66 0 1.32 0 2 0 C0.59483813 7.87965865 -1.55159205 15.34569144 -4.05273438 22.93945312 C-6.04569905 28.92093314 -6.04569905 28.92093314 -5 35 C-4.34 35.99 -3.68 36.98 -3 38 C-3.99555173 46.27337817 -10.50753164 53.951211 -15.5 60.3125 C-15.95036621 60.88661621 -16.40073242 61.46073242 -16.86474609 62.05224609 C-17.76669295 63.17536997 -18.68950803 64.2820515 -19.63232422 65.37109375 C-21.02951374 66.96618398 -21.02951374 66.96618398 -22.12158203 68.73828125 C-23.63560894 70.77701856 -24.7368092 71.80662952 -27 73 C-32.30955085 73.73675579 -37.53819809 73.56525818 -42.875 73.375 C-44.34109132 73.34487484 -45.80724197 73.31750348 -47.2734375 73.29296875 C-50.85019911 73.22714448 -54.42472044 73.123767 -58 73 C-58 72.34 -58 71.68 -58 71 C-55.9453125 69.5546875 -55.9453125 69.5546875 -53.125 67.875 C-47.36899453 64.30789802 -42.16915661 60.36506558 -37 56 C-36.18789062 55.33484375 -35.37578125 54.6696875 -34.5390625 53.984375 C-19.59241531 41.25379222 -3.3857053 19.68595658 0 0 Z " fill="#0D627C" transform="translate(185,97)"/>
<path d="M0 0 C0.66 0 1.32 0 2 0 C2.52134521 0.97247681 2.52134521 0.97247681 3.05322266 1.96459961 C7.59912568 10.37892717 12.43187969 18.60893836 17.31640625 26.83007812 C17.92097656 27.85681641 18.52554688 28.88355469 19.1484375 29.94140625 C19.69677246 30.86638916 20.24510742 31.79137207 20.81005859 32.74438477 C22 35 22 35 22 37 C22.99 36.67 23.98 36.34 25 36 C25 36.66 25 37.32 25 38 C23.68 38 22.36 38 21 38 C21 39.65 21 41.3 21 43 C20.01 43 19.02 43 18 43 C18.23968506 42.29641357 18.47937012 41.59282715 18.72631836 40.86791992 C19.108395 36.86412481 17.68734419 35.35805583 15.37890625 32.11328125 C15.00015854 31.57019821 14.62141083 31.02711517 14.23118591 30.46757507 C13.02216114 28.73894164 11.79355702 27.02549455 10.5625 25.3125 C9.3387544 23.5864833 8.11932478 21.85761465 6.90452576 20.12528992 C5.80334287 18.55861569 4.69014892 17.0004045 3.57641602 15.44262695 C2 13 2 13 2 11 C1.34 11 0.68 11 0 11 C-0.22292725 11.66370605 -0.44585449 12.32741211 -0.67553711 13.01123047 C-2.41772085 16.94262465 -4.75215177 20.29078234 -7.19140625 23.8203125 C-7.94936745 24.93102615 -7.94936745 24.93102615 -8.72264099 26.06417847 C-10.33140987 28.42091387 -11.94635169 30.77332015 -13.5625 33.125 C-15.18177615 35.48411162 -16.79959357 37.84416282 -18.41307068 40.20724487 C-19.41564614 41.67539867 -20.42160945 43.14124591 -21.43128967 44.60452271 C-21.88523605 45.26886322 -22.33918243 45.93320374 -22.80688477 46.61767578 C-23.20722427 47.19993927 -23.60756378 47.78220276 -24.02003479 48.3821106 C-25.17335949 50.15172202 -25.17335949 50.15172202 -26 53 C-22.83267649 52.37829964 -19.66627261 51.75202871 -16.5 51.125 C-15.613125 50.95097656 -14.72625 50.77695313 -13.8125 50.59765625 C-9.69749804 49.78070733 -5.63861991 48.92096653 -1.59375 47.8046875 C1.79530489 47.04583391 2.8677413 47.02913764 6 48 C-4.37344688 52.23457131 -14.71624793 56.01163205 -25.53613281 58.95751953 C-26.73834473 59.29565674 -26.73834473 59.29565674 -27.96484375 59.640625 C-28.6724585 59.83172852 -29.38007324 60.02283203 -30.10913086 60.21972656 C-32.28170349 61.11624588 -33.45728213 62.2505199 -35 64 C-34.41921503 60.30398418 -33.40940419 57.56292492 -31.55078125 54.32421875 C-31.03918457 53.42550049 -30.52758789 52.52678223 -30.00048828 51.60083008 C-29.44345215 50.63943115 -28.88641602 49.67803223 -28.3125 48.6875 C-27.73741699 47.68291748 -27.16233398 46.67833496 -26.56982422 45.64331055 C-24.72231988 42.42352408 -22.86310111 39.21078431 -21 36 C-20.38205566 34.93426758 -19.76411133 33.86853516 -19.12744141 32.77050781 C-15.65800404 26.79450453 -12.18012669 20.82351983 -8.67285156 14.86962891 C-7.46534103 12.79825137 -6.27690379 10.71571421 -5.10058594 8.62646484 C-4.47700195 7.52641113 -3.85341797 6.42635742 -3.2109375 5.29296875 C-2.6442334 4.28129639 -2.0775293 3.26962402 -1.49365234 2.22729492 C-0.75429443 1.12478394 -0.75429443 1.12478394 0 0 Z " fill="#F4F3EF" transform="translate(150,79)"/>
<path d="M0 0 C0.33 0 0.66 0 1 0 C0.91878906 1.18335937 0.83757812 2.36671875 0.75390625 3.5859375 C0.3232104 12.67573502 0.10423277 18.99226187 6.46875 26.15234375 C8 28 8 28 8 31 C8.66 31 9.32 31 10 31 C11.5078125 32.8984375 11.5078125 32.8984375 13.125 35.375 C13.66382813 36.18710938 14.20265625 36.99921875 14.7578125 37.8359375 C16 40 16 40 16 42 C16.66 42 17.32 42 18 42 C18 42.66 18 43.32 18 44 C6.78 44 -4.44 44 -16 44 C-14.82529858 40.47589573 -13.75302459 37.26741097 -12.265625 33.92578125 C-7.4044852 22.80821923 -3.43937183 11.63393578 0 0 Z " fill="#135B73" transform="translate(187,126)"/>
<path d="M0 0 C0.99 0.66 1.98 1.32 3 2 C3.3984375 4.93359375 3.3984375 4.93359375 3.375 8.4375 C3.38273438 9.59121094 3.39046875 10.74492187 3.3984375 11.93359375 C3 15 3 15 1.6640625 16.88671875 C-0.94170683 18.63001513 -2.95506455 18.38061693 -6 18 C-7.6640625 16.8515625 -7.6640625 16.8515625 -9 15 C-9.3984375 12.1875 -9.3984375 12.1875 -9.375 9 C-9.38273438 7.948125 -9.39046875 6.89625 -9.3984375 5.8125 C-9 3 -9 3 -7.6640625 1.14453125 C-5.0946498 -0.62269392 -3.03134385 -0.31576498 0 0 Z " fill="#3B3B3B" transform="translate(213,189)"/>
<path d="M0 0 C2.41796875 0.08984375 2.41796875 0.08984375 5 1 C6.91665101 4.52026733 7.80496831 8.14934233 9 12 C9.33 8.04 9.66 4.08 10 0 C10.99 0 11.98 0 13 0 C13 5.61 13 11.22 13 17 C11.68 17.33 10.36 17.66 9 18 C6.96022723 14.75490696 5.33488128 11.59391114 4 8 C3.67 11.3 3.34 14.6 3 18 C1.68 17.67 0.36 17.34 -1 17 C-1.02684679 14.35409986 -1.04676357 11.70846904 -1.0625 9.0625 C-1.07087891 8.30775391 -1.07925781 7.55300781 -1.08789062 6.77539062 C-1.09652441 4.85005687 -1.05224333 2.92464419 -1 1 C-0.67 0.67 -0.34 0.34 0 0 Z " fill="#454545" transform="translate(173,189)"/>
<path d="M0 0 C8 0 8 0 11 2 C11.1875 4.875 11.1875 4.875 11 8 C11 9.32 11 10.64 11 12 C11 14 11 16 11 18 C9.68 17.67 8.36 17.34 7 17 C7 15.02 7 13.04 7 11 C5.68 11 4.36 11 3 11 C3 13.31 3 15.62 3 18 C2.01 18 1.02 18 0 18 C0 12.06 0 6.12 0 0 Z " fill="#313131" transform="translate(97,189)"/>
<path d="M0 0 C1 1 1 1 1.0625 3.5625 C1.041875 4.366875 1.02125 5.17125 1 6 C-0.32 6 -1.64 6 -3 6 C-3 4.68 -3 3.36 -3 2 C-3.99 2 -4.98 2 -6 2 C-6 5.96 -6 9.92 -6 14 C-5.01 13.67 -4.02 13.34 -3 13 C-2.67 12.34 -2.34 11.68 -2 11 C-2.66 11 -3.32 11 -4 11 C-4 10.34 -4 9.68 -4 9 C-2.02 9 -0.04 9 2 9 C2 11.64 2 14.28 2 17 C0.3973218 17.10824843 -1.20745748 17.18570645 -2.8125 17.25 C-3.70582031 17.29640625 -4.59914062 17.3428125 -5.51953125 17.390625 C-8 17 -8 17 -9.796875 15.33203125 C-11.24366245 12.52770623 -11.43321836 10.58450236 -11.4375 7.4375 C-11.45683594 6.48746094 -11.47617188 5.53742188 -11.49609375 4.55859375 C-11 2 -11 2 -9.203125 0.14453125 C-5.92870027 -1.55654401 -3.50689724 -0.79401447 0 0 Z " fill="#444444" transform="translate(200,190)"/>
<path d="M0 0 C-10.37344688 4.23457131 -20.71624793 8.01163205 -31.53613281 10.95751953 C-32.33760742 11.18294434 -33.13908203 11.40836914 -33.96484375 11.640625 C-34.6724585 11.83172852 -35.38007324 12.02283203 -36.10913086 12.21972656 C-38.28170349 13.11624588 -39.45728213 14.2505199 -41 16 C-40.58485103 11.1565954 -38.53791301 9.18412171 -35 6 C-34.67 5.67 -34.34 5.34 -34 5 C-31.04348573 4.50426124 -28.0915969 4.05147804 -25.125 3.625 C-18.62402088 2.66063243 -12.39237632 1.5040847 -6.12890625 -0.546875 C-3.71301571 -1.06108289 -2.34376894 -0.66325565 0 0 Z " fill="#EEF4F4" transform="translate(156,127)"/>
<path d="M0 0 C1.65 0 3.3 0 5 0 C7.4793824 6.24273068 8.31985731 11.28299653 8 18 C7.01 17.67 6.02 17.34 5 17 C5 16.01 5 15.02 5 14 C3.35 14 1.7 14 0 14 C-0.33 15.32 -0.66 16.64 -1 18 C-1.66 18 -2.32 18 -3 18 C-3.31985731 11.28299653 -2.4793824 6.24273068 0 0 Z " fill="#343434" transform="translate(114,189)"/>
<path d="M0 0 C2.97 0 5.94 0 9 0 C9 1.32 9 2.64 9 4 C7.02 4 5.04 4 3 4 C3 5.32 3 6.64 3 8 C4.32 8 5.64 8 7 8 C7 8.99 7 9.98 7 11 C5.68 11 4.36 11 3 11 C3 11.99 3 12.98 3 14 C4.98 14 6.96 14 9 14 C9 15.32 9 16.64 9 18 C6.03 18 3.06 18 0 18 C0 12.06 0 6.12 0 0 Z " fill="#2B2B2B" transform="translate(139,189)"/>
<path d="M0 0 C0.99 0.33 1.98 0.66 3 1 C4.03131735 3.60862624 4.43057449 6.24047635 5 9 C5.99 6.03 6.98 3.06 8 0 C8.99 0 9.98 0 11 0 C10.48914188 6.43681228 9.27057103 11.95942424 7 18 C5.0703125 17.65234375 5.0703125 17.65234375 3 17 C0.75015962 12.12534585 -0.3078228 6.32675498 -1 1 C-0.67 0.67 -0.34 0.34 0 0 Z " fill="#3D3D3D" transform="translate(125,189)"/>
<path d="M0 0 C1.32 0.33 2.64 0.66 4 1 C4 5.29 4 9.58 4 14 C5.65 14.33 7.3 14.66 9 15 C8.67 15.99 8.34 16.98 8 18 C5.36 18 2.72 18 0 18 C0 12.06 0 6.12 0 0 Z " fill="#3B3B3B" transform="translate(152,189)"/>
<path d="M0 0 C3.63 0 7.26 0 11 0 C11 1.32 11 2.64 11 4 C9.68 4 8.36 4 7 4 C7 8.62 7 13.24 7 18 C6.01 18 5.02 18 4 18 C4 13.38 4 8.76 4 4 C2.68 4 1.36 4 0 4 C0 2.68 0 1.36 0 0 Z " fill="#2D2D2D" transform="translate(83,189)"/>
<path d="M0 0 C0.99 0 1.98 0 3 0 C3 5.61 3 11.22 3 17 C1.68 17.33 0.36 17.66 -1 18 C-4 13.375 -4 13.375 -4 10 C-3.34 10 -2.68 10 -2 10 C-1.67 10.66 -1.34 11.32 -1 12 C-0.67 8.04 -0.34 4.08 0 0 Z " fill="#343434" transform="translate(183,189)"/>
<path d="M0 0 C0.99 0 1.98 0 3 0 C3 5.94 3 11.88 3 18 C1.68 17.67 0.36 17.34 -1 17 C-1.02684679 14.35409986 -1.04676357 11.70846904 -1.0625 9.0625 C-1.07087891 8.30775391 -1.07925781 7.55300781 -1.08789062 6.77539062 C-1.09652441 4.85005687 -1.05224333 2.92464419 -1 1 C-0.67 0.67 -0.34 0.34 0 0 Z " fill="#3D3D3D" transform="translate(165,189)"/>
<path d="M0 0 C2.64764046 2.39548423 4.51720436 4.73784959 6 8 C5.74810196 12.61813076 4.58385934 16.67078446 3 21 C2.01 21 1.02 21 0 21 C-0.66 21.99 -1.32 22.98 -2 24 C-2.66 23.67 -3.32 23.34 -4 23 C-3.48308594 22.18015625 -2.96617187 21.3603125 -2.43359375 20.515625 C-1.77488281 19.43796875 -1.11617187 18.3603125 -0.4375 17.25 C0.55443359 15.64898437 0.55443359 15.64898437 1.56640625 14.015625 C3.19841424 11.22254461 3.19841424 11.22254461 2.83984375 8.796875 C1.92892413 6.73065882 1.92892413 6.73065882 0 4 C0 2.68 0 1.36 0 0 Z " fill="#DCEAEE" transform="translate(178,127)"/>
<path d="M0 0 C0.66 0 1.32 0 2 0 C0.56933303 8.1698614 -1.64137417 16.05394988 -4 24 C-4.66 23.34 -5.32 22.68 -6 22 C-6.99 22.33 -7.98 22.66 -9 23 C-7.04044488 17.92598289 -4.68363932 13.0616021 -2.33984375 8.15625 C-1.1620437 5.38172394 -0.44820562 2.96590389 0 0 Z " fill="#218B99" transform="translate(185,97)"/>
<path d="M0 0 C0.99 0 1.98 0 3 0 C3 1.32 3 2.64 3 4 C4.32 4.33 5.64 4.66 7 5 C7 5.66 7 6.32 7 7 C5.35 7 3.7 7 2 7 C2 7.66 2 8.32 2 9 C2.66 9 3.32 9 4 9 C3.67 9.99 3.34 10.98 3 12 C2.01 12 1.02 12 0 12 C0 8.04 0 4.08 0 0 Z " fill="#F4F4F4" transform="translate(194,192)"/>
<path d="M0 0 C0.99 0 1.98 0 3 0 C3 3.96 3 7.92 3 12 C1.68 11.67 0.36 11.34 -1 11 C-1.02688151 9.35425434 -1.04634123 7.70838587 -1.0625 6.0625 C-1.07410156 5.14597656 -1.08570313 4.22945312 -1.09765625 3.28515625 C-1 1 -1 1 0 0 Z " fill="#DEDEDE" transform="translate(209,192)"/>
<path d="M0 0 C-2.4566947 1.00419637 -4.91518353 2.00350501 -7.375 3 C-8.42300781 3.42925781 -8.42300781 3.42925781 -9.4921875 3.8671875 C-14.7734375 6 -14.7734375 6 -17 6 C-17 5.34 -17 4.68 -17 4 C-18.32 3.67 -19.64 3.34 -21 3 C-18.25244513 2.30111323 -15.50268803 1.6156012 -12.75 0.9375 C-11.97269531 0.73833984 -11.19539062 0.53917969 -10.39453125 0.33398438 C-9.64042969 0.15029297 -8.88632813 -0.03339844 -8.109375 -0.22265625 C-7.07248535 -0.48187866 -7.07248535 -0.48187866 -6.01464844 -0.74633789 C-3.74929191 -1.03156637 -2.1631688 -0.68076195 0 0 Z " fill="#CEE4E9" transform="translate(156,127)"/>
<path d="M0 0 C1.61363928 3.22727857 0.08456242 5.68923051 -1 9 C-2.45184126 13.23453702 -5.25414753 14.71991589 -9 17 C-7.51481201 12.95698825 -5.57122002 9.38853744 -3.375 5.6875 C-2.74335937 4.61886719 -2.11171875 3.55023438 -1.4609375 2.44921875 C-0.97882813 1.64097656 -0.49671875 0.83273438 0 0 Z " fill="#F5EBD8" transform="translate(127,119)"/>
<path d="M0 0 C1.42600325 4.27800976 -0.54362936 6.86765922 -2.4375 10.6875 C-2.77587891 11.38939453 -3.11425781 12.09128906 -3.46289062 12.81445312 C-4.29981348 14.54723706 -5.14877393 16.27419752 -6 18 C-6.33 17.34 -6.66 16.68 -7 16 C-7.66 15.67 -8.32 15.34 -9 15 C-8.51789063 14.25234375 -8.03578125 13.5046875 -7.5390625 12.734375 C-6.90742188 11.74953125 -6.27578125 10.7646875 -5.625 9.75 C-4.99851563 8.77546875 -4.37203125 7.8009375 -3.7265625 6.796875 C-2.34865148 4.56478385 -1.11687358 2.36912578 0 0 Z " fill="#EDDCCA" transform="translate(184,99)"/>
<path d="M0 0 C0.66 0 1.32 0 2 0 C2.33 0.99 2.66 1.98 3 3 C2.319375 3.45375 1.63875 3.9075 0.9375 4.375 C-3.16788939 8.04364584 -5.97314102 12.42918125 -9 17 C-9 12.80872569 -6.844676 10.20669782 -4.625 6.8125 C-4.2125 6.15830078 -3.8 5.50410156 -3.375 4.83007812 C-2.30862548 3.18063754 -1.15997177 1.58501557 0 0 Z " fill="#36B0C4" transform="translate(150,90)"/>
<path d="M0 0 C0.66 0 1.32 0 2 0 C1.71572583 1.58467728 1.42225182 3.1677057 1.125 4.75 C0.96257812 5.63171875 0.80015625 6.5134375 0.6328125 7.421875 C0.03203736 9.86947744 -0.77997117 11.80599857 -2 14 C-2.66 14 -3.32 14 -4 14 C-3.69255859 13.11248047 -3.69255859 13.11248047 -3.37890625 12.20703125 C-2.0002429 8.16339184 -0.68249153 4.23144751 0 0 Z " fill="#4C9897" transform="translate(185,97)"/>
<path d="M0 0 C2 1 2 1 3 3 C-0.96 4.32 -4.92 5.64 -9 7 C-8.67 6.01 -8.34 5.02 -8 4 C-5.69747517 2.93097061 -3.3627974 1.92824183 -1 1 C-0.67 0.67 -0.34 0.34 0 0 Z " fill="#7EA2B1" transform="translate(98,162)"/>
<path d="M0 0 C2.475 0.495 2.475 0.495 5 1 C5 1.66 5 2.32 5 3 C5.99 2.67 6.98 2.34 8 2 C8 2.66 8 3.32 8 4 C6.68 4 5.36 4 4 4 C4 5.65 4 7.3 4 9 C3.01 9 2.02 9 1 9 C1.20625 8.2575 1.4125 7.515 1.625 6.75 C2.04408751 3.67669159 1.61949011 2.57213134 0 0 Z " fill="#CFE1DF" transform="translate(167,113)"/>
<path d="M0 0 C2.475 0.495 2.475 0.495 5 1 C4.67 2.32 4.34 3.64 4 5 C2.68 5 1.36 5 0 5 C0 3.35 0 1.7 0 0 Z " fill="#D8D8D8" transform="translate(100,192)"/>
<path d="M0 0 C0.33 0 0.66 0 1 0 C1.50423019 5.29441695 0.18923033 7.81413519 -3 12 C-4 10 -4 10 -3.22265625 7.6171875 C-2.83980469 6.71226562 -2.45695313 5.80734375 -2.0625 4.875 C-1.68222656 3.96492187 -1.30195313 3.05484375 -0.91015625 2.1171875 C-0.60980469 1.41851562 -0.30945313 0.71984375 0 0 Z " fill="#2F8092" transform="translate(185,135)"/>
<path d="M0 0 C-1.43120744 0.55808089 -2.87030355 1.09596462 -4.3125 1.625 C-5.11300781 1.92664063 -5.91351563 2.22828125 -6.73828125 2.5390625 C-7.48464844 2.69117188 -8.23101562 2.84328125 -9 3 C-9.99 2.34 -10.98 1.68 -12 1 C-3.96428571 -1.27678571 -3.96428571 -1.27678571 0 0 Z " fill="#80BBC8" transform="translate(156,127)"/>
<path d="M0 0 C0.66 0.33 1.32 0.66 2 1 C2 2.98 2 4.96 2 7 C0.68 7 -0.64 7 -2 7 C-1.34 4.69 -0.68 2.38 0 0 Z " fill="#C9C9C9" transform="translate(116,193)"/>
<path d="M0 0 C2.96865509 2.54456151 4.3619751 5.48994665 6 9 C2.83884224 7.63016497 2.0072908 7.0109362 0 4 C0 2.68 0 1.36 0 0 Z " fill="#D3DED6" transform="translate(178,127)"/>
<path d="M0 0 C0.66 0 1.32 0 2 0 C1.25 4.75 1.25 4.75 -1 7 C-1 6.34 -1 5.68 -1 5 C-1.66 4.67 -2.32 4.34 -3 4 C-1.625 2 -1.625 2 0 0 Z " fill="#F3EBDF" transform="translate(178,110)"/>
</svg>
